Patient4_TMGait_0pt4_03_left_38_GRF.mot
version=1
nRows=26
nColumns=19
inDegrees=no
endheader
time	F1x	F1y	F1z	M1x	M1y	M1z	F2x	F2y	F2z	M2x	M2y	M2z	EC1x	EC1y	EC1z	EC2x	EC2y	EC2z
50.37	-4.2768	-11.9867	-0.59297	2.7769	1.5508	-3.9336	-29.0526	774.3442	-70.2212	279.3402	95.181	882.5167	-0.0592	0.0182	-0.0073	-0.0462	0.0165	0.9585
50.3834	-2.8885	-7.3901	-0.30597	1.6313	0.96983	-1.9375	-28.6119	763.3149	-69.2277	275.9711	92.6428	868.4767	-0.0592	0.0182	-0.0073	-0.0462	0.0165	0.9585
50.3969	-1.7362	-3.511	-0.073143	0.66007	0.46912	-0.23733	-27.5282	753.8578	-67.8667	273.0913	89.5423	855.4398	-0.0592	0.0182	-0.0073	-0.0462	0.0165	0.9585
50.4103	-0.87428	-0.55009	0.099464	-0.087354	0.080672	1.0829	-25.822	747.2583	-66.2564	271.1545	86.0852	844.8649	-0.0592	0.0182	-0.0073	-0.0462	0.0165	0.9585
50.4237	-0.2982	1.5147	0.21635	-0.61441	-0.19411	2.0244	-23.5978	744.2578	-64.5533	270.4449	82.4999	837.6625	-0.0592	0.0182	-0.0073	-0.0462	0.0165	0.9585
50.4371	0.030324	2.8129	0.29165	-0.9487	-0.37649	2.6445	-20.9676	745.0099	-62.9149	271.0425	78.9914	834.0903	-0.0592	0.0182	-0.0073	-0.0462	0.0165	0.9585
50.4506	0.17009	3.4914	0.33287	-1.1236	-0.48522	2.9846	-18.0303	749.159	-61.4699	272.8379	75.7111	833.8441	-0.0592	0.0182	-0.0073	-0.0462	0.0165	0.9585
50.464	0.16236	3.6859	0.35875	-1.1677	-0.5558	3.0735	-14.8671	755.9016	-60.2892	275.5566	72.7348	836.1237	-0.0592	0.0182	-0.0073	-0.0462	0.0165	0.9585
50.4774	0.054292	3.4977	0.37437	-1.0997	-0.6089	2.9017	-11.5457	764.0939	-59.3856	278.7963	70.0685	839.753	-0.0592	0.0182	-0.0073	-0.0462	0.0165	0.9585
50.4909	-0.1176	2.9716	0.39925	-0.9213	-0.67325	2.4244	-8.1196	772.3926	-58.7139	282.0736	67.6552	843.3425	-0.0592	0.0182	-0.0073	-0.0462	0.0165	0.9585
50.5043	-0.31789	2.1136	0.4333	-0.62634	-0.75799	1.5749	-4.6101	779.3822	-58.2048	284.8743	65.4086	845.4189	-0.0592	0.0182	-0.0073	-0.0462	0.0165	0.9585
50.5177	-0.51805	0.90189	0.49085	-0.20281	-0.87881	0.27867	-1.0351	783.7913	-57.7835	286.7345	63.2378	844.6801	-0.0592	0.0182	-0.0073	-0.0462	0.0165	0.9585
50.5311	-0.67969	-0.67565	0.55765	0.35314	-1.0088	-1.5067	2.608	784.7401	-57.3807	287.3294	61.059	840.2593	-0.0592	0.0182	-0.0073	-0.0462	0.0165	0.9585
50.5446	-0.74677	-2.5808	0.61858	1.0261	-1.104	-3.7447	6.3123	781.8921	-56.9649	286.5275	58.8389	831.8861	-0.0592	0.0182	-0.0073	-0.0462	0.0165	0.9585
50.558	-0.64147	-4.6483	0.6376	1.7572	-1.0905	-6.2278	10.0202	775.4763	-56.5566	284.4012	56.6171	819.9075	-0.0592	0.0182	-0.0073	-0.0462	0.0165	0.9585
50.5714	-0.26661	-6.5282	0.56438	2.4206	-0.8694	-8.5108	13.6455	766.2784	-56.2189	281.2243	54.4915	805.2593	-0.0592	0.0182	-0.0073	-0.0462	0.0165	0.9585
50.5849	0.50294	-7.6149	0.33087	2.7972	-0.3101	-9.8404	17.072	755.5608	-56.0302	277.4422	52.5781	789.3707	-0.0592	0.0182	-0.0073	-0.0462	0.0165	0.9585
50.5983	1.7953	-6.9656	-0.15224	2.5461	0.74104	-9.0525	20.1713	744.7782	-56.0586	273.5716	50.9921	773.8566	-0.0592	0.0182	-0.0073	-0.0462	0.0165	0.9585
50.6117	3.7142	-3.2694	-0.96719	1.1951	2.4197	-4.5456	22.8008	735.2179	-56.3354	270.0712	49.8244	760.1452	-0.0592	0.0182	-0.0073	-0.0462	0.0165	0.9585
50.6251	6.2957	5.1091	-2.196	-1.8451	4.8244	5.6701	24.8305	727.6527	-56.8547	267.2105	49.1266	749.1179	-0.0592	0.0182	-0.0073	-0.0462	0.0165	0.9585
50.6386	9.4276	19.9833	-3.8626	-7.2251	7.9327	23.8031	26.1533	722.0414	-57.556	264.9629	48.8904	740.7925	-0.0592	0.0182	-0.0073	-0.0462	0.0165	0.9585
50.652	12.7759	43.0369	-5.9083	-15.5452	11.5389	51.8989	26.6883	717.3826	-58.3221	262.9552	49.0401	734.1721	-0.0592	0.0182	-0.0073	-0.0462	0.0165	0.9585
50.6654	15.6529	75.2447	-8.1164	-27.1473	15.1234	91.1472	26.444	711.8386	-58.9634	260.5186	49.3945	727.3655	-0.0592	0.0182	-0.0073	-0.0462	0.0165	0.9585
50.6789	16.9219	116.0306	-10.0491	-41.8115	17.737	140.8405	25.4831	703.1157	-59.2405	256.8297	49.6998	717.985	-0.0592	0.0182	-0.0073	-0.0462	0.0165	0.9585
50.6923	15.1494	162.3573	-10.9719	-58.4213	17.9836	197.2909	23.8966	688.9521	-58.8917	251.0926	49.6673	703.6367	-0.0592	0.0182	-0.0073	-0.0462	0.0165	0.9585
50.7057	10.0684	208.8974	-9.8681	-75.0004	14.5611	254.0484	21.821	667.7678	-57.7204	242.775	49.0552	682.5778	-0.0592	0.0182	-0.0073	-0.0462	0.0165	0.9585
